# xmcd
#
# Track frame offsets:
#  150
#  11287
#  21995
#  35159
#  45808
#  61083
#  74758
#  86721
#  100984
#  115735
#  132710
#  146692
#  158737
#  174498
#  191583
#  202873
#  216888
#  229581
#  239513
#  254135
#  268975
#  278482
#
# Disc length: 3893 seconds
#
# Revision: 0
# Processed by: cddbd v1.5.2PL0 Copyright (c) Steve Scherf et al.
# Submitted via: AltoMP3_Maker 3.0
#
DISCID=440f3316
DTITLE=Jim Haynes - The Complete Jim Haynes Collection [CD1]
DYEAR=1900
DGENRE=
TTITLE0=Don't Call Wagga Wagga Wagga
TTITLE1=The Fish Song
TTITLE2=Cricket Out The Back
TTITLE3=I'll Have Chips
TTITLE4=Where's There a Will
TTITLE5=Since Cheryl Went Feral
TTITLE6=The Feral Accountant
TTITLE7=Wagga Wagga Wedding in July
TTITLE8=Madame Stella Fortune Teller
TTITLE9=I Wish I'd Met You Sooner (Beccy Cole)
TTITLE10=Raven About Robin
TTITLE11=The Eleven Hours of Christmas
TTITLE12=The Video Song
TTITLE13=Wagga Wagga Honeymoon
TTITLE14=Wheelabaarabak For Me
TTITLE15=Rindercella
TTITLE16=Lunch For Dipso Dan
TTITLE17=Dipso and The Twins
TTITLE18=Pop's New Boots
TTITLE19=The Wheelabarabak Bugle
TTITLE20=Wheelabarabak
TTITLE21=Buckalong
EXTD=
EXTT0=
EXTT1=
EXTT2=
EXTT3=
EXTT4=
EXTT5=
EXTT6=
EXTT7=
EXTT8=
EXTT9=
EXTT10=
EXTT11=
EXTT12=
EXTT13=
EXTT14=
EXTT15=
EXTT16=
EXTT17=
EXTT18=
EXTT19=
EXTT20=
EXTT21=
PLAYORDER=
